<svg width="640" height="640" viewBox="0 0 640 640" fill="none" xmlns="http://www.w3.org/2000/svg">
<rect width="640" height="640" fill="#C74634"/>
<path d="M252.764 435C189.006 435 138 383.889 138 320C138 256.111 189.006 205 252.764 205H387.236C450.994 205 502 256.111 502 320C502 383.889 450.994 435 387.236 435H252.764ZM383.758 394.343C425.49 394.343 457.949 360.657 457.949 320C457.949 278.182 424.331 245.657 383.758 245.657H256.242C214.51 245.657 182.051 279.343 182.051 320C182.051 360.657 215.669 394.343 256.242 394.343H383.758Z" fill="white"/>
</svg>
